<mxfile host="app.diagrams.net" modified="2023-06-04T03:15:27.327Z" agent="Mozilla/5.0 (X11; Linux x86_64) AppleWebKit/537.36 (KHTML, like Gecko) Chrome/109.0.0.0 Safari/537.36" version="21.3.7" etag="dACEYsWUWQa3k2-mABxy" type="github">
  <diagram name="第 1 页" id="E30ZE-xMv7zblTTG2VkE">
    <mxGraphModel>
      <root>
        <mxCell id="0" />
        <mxCell id="1" parent="0" />
      </root>
    </mxGraphModel>
  </diagram>
</mxfile>
